<?xml version="1.0" encoding="iso-8859-1"?>
<!-- Uploaded to: SVG Repo, www.svgrepo.com, Generator: SVG Repo Mixer Tools -->
<!DOCTYPE svg PUBLIC "-//W3C//DTD SVG 1.1//EN" "http://www.w3.org/Graphics/SVG/1.1/DTD/svg11.dtd">
<svg fill="#000000" height="800px" width="800px" version="1.1" id="Capa_1" xmlns="http://www.w3.org/2000/svg" xmlns:xlink="http://www.w3.org/1999/xlink" 
	 viewBox="0 0 436.293 436.293" xml:space="preserve">
<g>
	<path d="M429.793,287.784h-20.54c-1.49,0-2.936,0.512-4.094,1.451c-20.514,16.632-46.354,25.792-72.764,25.792h-10.73
		c2.227-3.834,3.509-8.281,3.509-13.025c0-8.055-3.679-15.265-9.444-20.042c5.086-4.753,8.274-11.513,8.274-19.007
		c0-7.772-3.429-14.754-8.849-19.527c5.417-4.772,8.844-11.752,8.844-19.521c0-1.937-0.209-3.841-0.625-5.698
		c0.612-0.502,1.199-1.034,1.765-1.586c7.567,15.85,23.751,26.83,42.454,26.83c3.59,0,6.5-2.91,6.5-6.5s-2.91-6.5-6.5-6.5
		c-18.757,0-34.017-15.26-34.017-34.017l-0.12-33.295c0-3.59-2.91-6.5-6.5-6.5s-6.5,2.91-6.5,6.5v33.8
		c0,8-6.508,14.508-14.507,14.508c-8,0-14.508-6.508-14.508-14.508v-45.942c0-4.663,3.793-8.457,8.456-8.457h46.31
		c17.549,0,34.099,8.538,44.268,22.835l0.107,0.151c8.432,11.853,22.148,18.929,36.693,18.929c3.59,0,6.5-2.91,6.5-6.5
		s-2.91-6.5-6.5-6.5c-10.346,0-20.103-5.034-26.098-13.461l-0.107-0.151c-12.605-17.723-33.115-28.303-54.863-28.303h-46.31
		c-10.968,0-20.024,8.276-21.291,18.909c-9.173-10.111-22.312-16.135-36.539-16.135h-32.745v-15.702
		c4.156-6.681,6.35-14.338,6.35-22.282c0-21.881-16.681-39.94-37.993-42.13c-7.071-14.288-21.831-23.619-37.989-23.619
		c-10.339,0-20.13,3.712-27.769,10.37c-7.735-7.045-17.775-10.977-28.454-10.977c-16.527,0-31.28,9.491-38.231,24.102
		c-0.962-0.065-1.925-0.099-2.885-0.099C18.999,51.978,0,70.978,0,94.331c0,8.209,2.327,16.08,6.737,22.903V372.31
		c0,3.59,2.91,6.5,6.5,6.5c8.693,0,15.767,7.073,15.767,15.766v7.242c0,3.59,2.91,6.5,6.5,6.5h145.054c3.59,0,6.5-2.91,6.5-6.5
		v-7.242c0-8.693,7.073-15.766,15.767-15.766c3.59,0,6.5-2.91,6.5-6.5v-19.175h32.748c17.892,0,34.237-9.585,43.001-25.107h47.322
		c28.604,0,56.607-9.658,79.128-27.244h18.27c3.59,0,6.5-2.91,6.5-6.5S433.383,287.784,429.793,287.784z M244.864,275.978
		c-7.182,0-13.024-5.843-13.024-13.025c0-7.182,5.843-13.024,13.024-13.024h53.115c7.182,0,13.024,5.843,13.024,13.024
		c0,7.182-5.843,13.025-13.024,13.025H244.864z M175.436,130.369c-3.59,0-6.5,2.91-6.5,6.5v3.223H19.737v-24.676h176.587v24.676
		h-14.389v-3.223C181.936,133.279,179.025,130.369,175.436,130.369z M209.324,171.83h12.755c-2.226,3.834-3.508,8.281-3.508,13.024
		c0,6.398,2.325,12.26,6.169,16.797c-7.513,4.569-12.542,12.834-12.542,22.252c0,9.492,5.11,17.809,12.721,22.356
		c-3.791,4.522-6.079,10.345-6.079,16.693c0,12.365,8.671,22.737,20.251,25.371c-2.468,3.978-3.897,8.663-3.897,13.678
		c0,4.744,1.282,9.191,3.508,13.025h-29.377V171.83z M278.442,171.832c0,0,0.013,25.733,0.024,26.045l-33.871,0.002
		c-7.182,0-13.024-5.843-13.024-13.025c0-7.182,5.843-13.024,13.024-13.024L278.442,171.832z M305.95,224.448
		c1.724,0,3.408-0.167,5.045-0.472c-0.039,7.146-5.861,12.949-13.016,12.949l-59.757,0.004c-7.182,0-13.024-5.843-13.024-13.025
		c0-7.182,5.843-13.024,13.024-13.024h44.027C287.039,218.991,295.867,224.448,305.95,224.448z M242.069,145.315
		c11.222,0,21.52,5.092,28.301,13.515h-25.774h-35.271v-13.515H242.069z M42.353,64.978c1.925,0,3.868,0.191,5.775,0.569
		c3.222,0.638,6.417-1.232,7.439-4.355c3.956-12.092,15.168-20.217,27.901-20.217c9.134,0,17.598,4.155,23.219,11.4
		c1.218,1.569,3.085,2.495,5.071,2.515c1.984,0.034,3.871-0.869,5.119-2.413c5.597-6.924,13.912-10.895,22.813-10.895
		c12.218,0,23.283,7.699,27.535,19.157c0.945,2.548,3.376,4.239,6.094,4.239c16.186,0,29.354,13.167,29.354,29.353
		c0,2.768-0.399,5.479-1.145,8.084H14.146C13.402,99.813,13,97.104,13,94.331C13,78.146,26.168,64.978,42.353,64.978z
		 M174.058,394.576v0.742H42.004v-0.742c0-13.627-9.524-25.072-22.267-28.025V153.092h149.198V309.45c0,3.59,2.91,6.5,6.5,6.5
		s6.5-2.91,6.5-6.5V153.092h14.389v213.459C183.582,369.505,174.058,380.949,174.058,394.576z M242.072,340.135h-32.748v-12.107
		h59.829C262.344,335.636,252.576,340.135,242.072,340.135z M261.218,315.028c-7.182,0-13.024-5.843-13.024-13.025
		c0-7.182,5.843-13.024,13.024-13.024h37.931c7.183,0,13.025,5.843,13.025,13.024c0,7.182-5.843,13.025-13.025,13.025H261.218z"/>
	<path d="M175.436,329.688c-3.59,0-6.5,2.91-6.5,6.5v12.154c0,3.59,2.91,6.5,6.5,6.5s6.5-2.91,6.5-6.5v-12.154
		C181.936,332.598,179.025,329.688,175.436,329.688z"/>
</g>
</svg>